<?xml version="1.0" encoding="UTF-8" standalone="no"?>
<!DOCTYPE svg PUBLIC "-//W3C//DTD SVG 1.1//EN"
 "http://www.w3.org/Graphics/SVG/1.1/DTD/svg11.dtd">
<!-- Generated by graphviz version 2.40.1 (20161225.0304)
 -->
<!-- Title: dependencies Pages: 1 -->
<svg width="1032pt" height="284pt"
 viewBox="0.00 0.00 1032.00 284.00" xmlns="http://www.w3.org/2000/svg" xmlns:xlink="http://www.w3.org/1999/xlink">
<g id="graph0" class="graph" transform="scale(1 1) rotate(0) translate(4 280)">
<title>dependencies</title>
<polygon fill="#ffffff" stroke="transparent" points="-4,4 -4,-280 1028,-280 1028,4 -4,4"/>
<text text-anchor="start" x="491.0091" y="-42.4" font-family="sans-serif" font-weight="bold" font-size="14.00" fill="#000000">Legend</text>
<polygon fill="#ffffb3" stroke="transparent" points="278,-10 278,-30 298,-30 298,-10 278,-10"/>
<text text-anchor="start" x="301.629" y="-15.4" font-family="sans-serif" font-size="14.00" fill="#000000"> &#160;Declarations</text>
<polygon fill="#8dd3c7" stroke="transparent" points="391,-10 391,-30 411,-30 411,-10 391,-10"/>
<text text-anchor="start" x="414.7251" y="-15.4" font-family="sans-serif" font-size="14.00" fill="#000000"> &#160;Module</text>
<polygon fill="#80b1d3" stroke="transparent" points="477,-10 477,-30 497,-30 497,-10 477,-10"/>
<text text-anchor="start" x="500.7812" y="-15.4" font-family="sans-serif" font-size="14.00" fill="#000000"> &#160;Bootstrap</text>
<polygon fill="#fdb462" stroke="transparent" points="574,-10 574,-30 594,-30 594,-10 574,-10"/>
<text text-anchor="start" x="597.6732" y="-15.4" font-family="sans-serif" font-size="14.00" fill="#000000"> &#160;Providers</text>
<polygon fill="#fb8072" stroke="transparent" points="670,-10 670,-30 690,-30 690,-10 670,-10"/>
<text text-anchor="start" x="693.7258" y="-15.4" font-family="sans-serif" font-size="14.00" fill="#000000"> &#160;Exports</text>
<g id="clust1" class="cluster">
<title>cluster_KeyboardModule</title>
<polygon fill="none" stroke="#000000" stroke-dasharray="1,5" points="8,-70 8,-268 1016,-268 1016,-70 8,-70"/>
</g>
<g id="clust2" class="cluster">
<title>cluster_KeyboardModule_declarations</title>
<polygon fill="none" stroke="#000000" points="326,-78 326,-130 1008,-130 1008,-78 326,-78"/>
</g>
<g id="clust8" class="cluster">
<title>cluster_KeyboardModule_exports</title>
<polygon fill="none" stroke="#000000" points="423,-208 423,-260 565,-260 565,-208 423,-208"/>
</g>
<g id="clust10" class="cluster">
<title>cluster_KeyboardModule_providers</title>
<polygon fill="none" stroke="#000000" points="16,-78 16,-130 318,-130 318,-78 16,-78"/>
</g>
<!-- KeyboardComponent -->
<g id="node1" class="node">
<title>KeyboardComponent</title>
<polygon fill="#ffffb3" stroke="#000000" points="1000.0296,-122 863.9704,-122 863.9704,-86 1000.0296,-86 1000.0296,-122"/>
<text text-anchor="middle" x="932" y="-99.8" font-family="Times,serif" font-size="14.00" fill="#000000">KeyboardComponent</text>
</g>
<!-- KeyboardModule -->
<g id="node5" class="node">
<title>KeyboardModule</title>
<polygon fill="#8dd3c7" stroke="#000000" points="551.2465,-187 548.2465,-191 527.2465,-191 524.2465,-187 436.7535,-187 436.7535,-151 551.2465,-151 551.2465,-187"/>
<text text-anchor="middle" x="494" y="-164.8" font-family="Times,serif" font-size="14.00" fill="#000000">KeyboardModule</text>
</g>
<!-- KeyboardComponent&#45;&gt;KeyboardModule -->
<g id="edge1" class="edge">
<title>KeyboardComponent&#45;&gt;KeyboardModule</title>
<path fill="none" stroke="#000000" d="M932,-122.2843C932,-143.3211 932,-175 932,-175 932,-175 561.2609,-175 561.2609,-175"/>
<polygon fill="#000000" stroke="#000000" points="561.2609,-171.5001 551.2609,-175 561.2608,-178.5001 561.2609,-171.5001"/>
</g>
<!-- KeyboardContainerComponent -->
<g id="node2" class="node">
<title>KeyboardContainerComponent</title>
<polygon fill="#ffffb3" stroke="#000000" points="845.7366,-122 654.2634,-122 654.2634,-86 845.7366,-86 845.7366,-122"/>
<text text-anchor="middle" x="750" y="-99.8" font-family="Times,serif" font-size="14.00" fill="#000000">KeyboardContainerComponent</text>
</g>
<!-- KeyboardContainerComponent&#45;&gt;KeyboardModule -->
<g id="edge2" class="edge">
<title>KeyboardContainerComponent&#45;&gt;KeyboardModule</title>
<path fill="none" stroke="#000000" d="M750,-122.0225C750,-139.3734 750,-163 750,-163 750,-163 561.4514,-163 561.4514,-163"/>
<polygon fill="#000000" stroke="#000000" points="561.4514,-159.5001 551.4514,-163 561.4514,-166.5001 561.4514,-159.5001"/>
</g>
<!-- KeyboardDirective -->
<g id="node3" class="node">
<title>KeyboardDirective</title>
<polygon fill="#ffffb3" stroke="#000000" points="635.7795,-122 512.2205,-122 512.2205,-86 635.7795,-86 635.7795,-122"/>
<text text-anchor="middle" x="574" y="-99.8" font-family="Times,serif" font-size="14.00" fill="#000000">KeyboardDirective</text>
</g>
<!-- KeyboardDirective&#45;&gt;KeyboardModule -->
<g id="edge3" class="edge">
<title>KeyboardDirective&#45;&gt;KeyboardModule</title>
<path fill="none" stroke="#000000" d="M531.8668,-122.1061C531.8668,-122.1061 531.8668,-140.991 531.8668,-140.991"/>
<polygon fill="#000000" stroke="#000000" points="528.3668,-140.9909 531.8668,-150.991 535.3668,-140.991 528.3668,-140.9909"/>
</g>
<!-- KeyboardKeyComponent -->
<g id="node4" class="node">
<title>KeyboardKeyComponent</title>
<polygon fill="#ffffb3" stroke="#000000" points="493.8501,-122 334.1499,-122 334.1499,-86 493.8501,-86 493.8501,-122"/>
<text text-anchor="middle" x="414" y="-99.8" font-family="Times,serif" font-size="14.00" fill="#000000">KeyboardKeyComponent</text>
</g>
<!-- KeyboardKeyComponent&#45;&gt;KeyboardModule -->
<g id="edge4" class="edge">
<title>KeyboardKeyComponent&#45;&gt;KeyboardModule</title>
<path fill="none" stroke="#000000" d="M465.276,-122.1061C465.276,-122.1061 465.276,-140.991 465.276,-140.991"/>
<polygon fill="#000000" stroke="#000000" points="461.776,-140.9909 465.276,-150.991 468.776,-140.991 461.776,-140.9909"/>
</g>
<!-- KeyboardDirective  -->
<g id="node6" class="node">
<title>KeyboardDirective </title>
<polygon fill="#fb8072" stroke="#000000" points="557.2794,-252 430.7206,-252 430.7206,-216 557.2794,-216 557.2794,-252"/>
<text text-anchor="middle" x="494" y="-229.8" font-family="Times,serif" font-size="14.00" fill="#000000">KeyboardDirective </text>
</g>
<!-- KeyboardModule&#45;&gt;KeyboardDirective  -->
<g id="edge5" class="edge">
<title>KeyboardModule&#45;&gt;KeyboardDirective </title>
<path fill="none" stroke="#000000" stroke-dasharray="5,2" d="M494,-187.1061C494,-187.1061 494,-205.991 494,-205.991"/>
<polygon fill="#000000" stroke="#000000" points="490.5001,-205.9909 494,-215.991 497.5001,-205.991 490.5001,-205.9909"/>
</g>
<!-- KeyService -->
<g id="node7" class="node">
<title>KeyService</title>
<ellipse fill="#fdb462" stroke="#000000" cx="254" cy="-104" rx="56.157" ry="18"/>
<text text-anchor="middle" x="254" y="-99.8" font-family="Times,serif" font-size="14.00" fill="#000000">KeyService</text>
</g>
<!-- KeyService&#45;&gt;KeyboardModule -->
<g id="edge6" class="edge">
<title>KeyService&#45;&gt;KeyboardModule</title>
<path fill="none" stroke="#000000" d="M254,-122.0225C254,-139.3734 254,-163 254,-163 254,-163 426.514,-163 426.514,-163"/>
<polygon fill="#000000" stroke="#000000" points="426.5141,-166.5001 436.514,-163 426.514,-159.5001 426.5141,-166.5001"/>
</g>
<!-- KeyboardService -->
<g id="node8" class="node">
<title>KeyboardService</title>
<ellipse fill="#fdb462" stroke="#000000" cx="102" cy="-104" rx="78.1308" ry="18"/>
<text text-anchor="middle" x="102" y="-99.8" font-family="Times,serif" font-size="14.00" fill="#000000">KeyboardService</text>
</g>
<!-- KeyboardService&#45;&gt;KeyboardModule -->
<g id="edge7" class="edge">
<title>KeyboardService&#45;&gt;KeyboardModule</title>
<path fill="none" stroke="#000000" d="M102,-122.2843C102,-143.3211 102,-175 102,-175 102,-175 426.58,-175 426.58,-175"/>
<polygon fill="#000000" stroke="#000000" points="426.5801,-178.5001 436.58,-175 426.58,-171.5001 426.5801,-178.5001"/>
</g>
</g>
</svg>
